<?xml version="1.0" encoding="UTF-8" standalone="no"?>
<svg
   xmlns:dc="http://purl.org/dc/elements/1.1/"
   xmlns:cc="http://creativecommons.org/ns#"
   xmlns:rdf="http://www.w3.org/1999/02/22-rdf-syntax-ns#"
   xmlns:svg="http://www.w3.org/2000/svg"
   xmlns="http://www.w3.org/2000/svg"
   xmlns:sodipodi="http://sodipodi.sourceforge.net/DTD/sodipodi-0.dtd"
   xmlns:inkscape="http://www.inkscape.org/namespaces/inkscape"
   width="140pt"
   height="140pt"
   viewBox="0 0 140 140"
   version="1.1"
   id="svg86"
   sodipodi:docname="logo.svg"
   inkscape:version="0.92.5 (2060ec1f9f, 2020-04-08)">
  <metadata
     id="metadata92">
    <rdf:RDF>
      <cc:Work
         rdf:about="">
        <dc:format>image/svg+xml</dc:format>
        <dc:type
           rdf:resource="http://purl.org/dc/dcmitype/StillImage" />
        <dc:title></dc:title>
      </cc:Work>
    </rdf:RDF>
  </metadata>
  <defs
     id="defs90" />
  <sodipodi:namedview
     pagecolor="#ffffff"
     bordercolor="#666666"
     borderopacity="1"
     objecttolerance="10"
     gridtolerance="10"
     guidetolerance="10"
     inkscape:pageopacity="0"
     inkscape:pageshadow="2"
     inkscape:window-width="1366"
     inkscape:window-height="710"
     id="namedview88"
     showgrid="false"
     inkscape:zoom="0.80090498"
     inkscape:cx="184"
     inkscape:cy="147.33333"
     inkscape:window-x="0"
     inkscape:window-y="26"
     inkscape:window-maximized="1"
     inkscape:current-layer="svg86" />
  <g
     id="#001a48fe"
     transform="translate(-67.987291,-14.512713)">
    <path
       d="m 132.64,36.74 c 2.38,-1.7 5.4,-3 8.31,-1.79 1.19,0.54 3.19,1.28 2.81,2.97 -1.02,10.88 -0.79,21.81 -0.04,32.7 -3.43,-2.02 -7.48,-1.82 -10.94,-0.04 1.03,-11.25 1.2,-22.61 -0.14,-33.84 z"
       id="path2"
       inkscape:connector-curvature="0"
       style="opacity:1;fill:#001a48" />
    <path
       d="m 115.74,103.98 c -0.19,-1.5 0.6,-3.49 2.36,-3.46 4.59,-0.15 9.2,-0.14 13.79,0 1.86,-0.18 2.77,1.89 2.54,3.48 0.06,7.58 0.02,15.16 -0.02,22.74 14.29,-0.12 28.64,0.67 42.77,2.95 8.14,1.55 16.53,2.98 23.92,6.92 -19.78,-3.97 -39.99,-5.4 -60.14,-5.41 -21.8,-0.18 -43.71,1.02 -65.1,5.39 1.94,-1.19 4.02,-2.17 6.21,-2.82 10.93,-3.46 22.35,-5.04 33.74,-6.08 -0.15,-7.91 -0.12,-15.81 -0.07,-23.71 m 16.25,13.25 c 0.15,-1.27 0.29,-2.55 0.27,-3.83 -2.7,-1.2 -1.81,3.03 -0.27,3.83 z"
       id="path4"
       inkscape:connector-curvature="0"
       style="opacity:1;fill:#001a48" />
    <path
       d="m 152.99,102.08 c 1.61,-1.42 3.96,-0.74 5.92,-0.98 0.11,2.13 0.2,4.26 0.28,6.4 -2.24,0.06 -4.48,0.1 -6.72,0.15 0.1,-1.85 -0.32,-3.85 0.52,-5.57 z"
       id="path6"
       inkscape:connector-curvature="0"
       style="opacity:1;fill:#001a48" />
    <path
       d="m 152.33,109.08 c 2.17,-0.13 4.35,-0.21 6.52,-0.25 0.03,2.22 0.06,4.45 0.09,6.67 -2.07,-0.25 -4.76,0.65 -6.17,-1.36 -0.36,-1.66 -0.33,-3.37 -0.44,-5.06 z"
       id="path8"
       inkscape:connector-curvature="0"
       style="opacity:1;fill:#001a48" />
  </g>
  <g
     id="#f08e00fe"
     transform="translate(-67.987291,-14.512713)">
    <path
       d="m 72.47,38.66 c 2.75,-1.47 7.64,-1.84 8.82,1.78 1,4.17 2.78,8.26 2.96,12.56 -2.12,3.8 -8.29,5.73 -11.59,2.45 -1.39,-3.7 -2.27,-7.58 -3.22,-11.42 -0.92,-2.38 1,-4.48 3.03,-5.37 z"
       id="path11"
       inkscape:connector-curvature="0"
       style="opacity:1;fill:#f08e00" />
    <path
       d="m 197.17,38.23 c 3.61,-1.58 8.51,0.11 10.28,3.68 -0.58,4.5 -1.99,8.92 -3.38,13.24 -3.03,3.73 -9.63,1.69 -11.7,-2.15 -0.03,-3.41 1.5,-6.61 2.17,-9.92 0.62,-1.7 0.63,-4.13 2.63,-4.85 z"
       id="path13"
       inkscape:connector-curvature="0"
       style="opacity:1;fill:#f08e00" />
    <path
       d="m 176.53,111.92 c 3.28,2.34 7.33,4.17 11.39,2.69 -2.99,3.79 -6.07,7.5 -9.11,11.24 -0.69,-4.65 -1.35,-9.32 -2.28,-13.93 z"
       id="path15"
       inkscape:connector-curvature="0"
       style="opacity:1;fill:#f08e00" />
  </g>
  <g
     id="#001b49ff"
     transform="translate(-67.987291,-14.512713)">
    <path
       d="m 103.7,45.68 c 9.19,-2.76 18.45,-5.3 27.63,-8.09 1.42,11.2 0.95,22.5 0.08,33.71 -6.01,2.7 -12.07,5.3 -18.13,7.9 -1.23,0.5 -2.46,1 -3.69,1.52 l 0.89,2.37 -1.91,-4.1 0.19,2.04 C 97.61,86.32 86.15,90.97 74.87,95.96 84.32,79.11 94.15,62.47 103.7,45.68 Z"
       id="path18"
       inkscape:connector-curvature="0"
       style="opacity:1;fill:#001b49" />
    <path
       d="m 145.18,37.62 c 8.89,2.56 17.79,5.06 26.64,7.73 1.23,0.25 1.7,1.55 2.35,2.46 9.13,16.08 18.46,32.05 27.63,48.1 C 182.92,87.9 164.21,79.48 145.34,71.43 144.13,60.2 144.12,48.85 145.18,37.62 Z"
       id="path20"
       inkscape:connector-curvature="0"
       style="opacity:1;fill:#001b49" />
  </g>
  <g
     id="#001a48ff"
     transform="translate(-67.987291,-14.512713)">
    <path
       d="m 82.28,56.87 c 0.93,-0.91 1.86,-1.81 2.79,-2.72 1.02,4.95 2.88,9.7 3.64,14.69 -0.49,0.92 -1.49,2.77 -1.98,3.69 -1.86,-5.11 -2.82,-10.48 -4.45,-15.66 z"
       id="path23"
       inkscape:connector-curvature="0"
       style="opacity:1;fill:#001a48" />
    <path
       d="m 187.66,68.94 c 1.35,-4.97 2.59,-9.96 4.03,-14.91 0.88,0.99 1.75,1.99 2.63,2.98 -1.56,5.08 -2.74,10.26 -4.22,15.35 -0.83,-1.13 -1.63,-2.28 -2.44,-3.42 z"
       id="path25"
       inkscape:connector-curvature="0"
       style="opacity:1;fill:#001a48" />
    <path
       d="m 72.91,57.48 c 1.24,0.31 2.48,0.61 3.71,0.92 1.87,6.87 3.7,13.76 5.58,20.63 0.53,1.82 -1.35,3.11 -2.18,4.5 -2.46,-8.66 -4.59,-17.41 -7.11,-26.05 z"
       id="path27"
       inkscape:connector-curvature="0"
       style="opacity:1;fill:#001a48" />
    <path
       d="m 199.76,58.68 c 1.33,-0.49 2.65,-0.98 3.98,-1.46 -2.46,8.71 -4.71,17.47 -7.06,26.21 -0.88,-1.09 -1.75,-2.18 -2.61,-3.28 1.99,-7.13 4.03,-14.25 5.69,-21.47 z"
       id="path29"
       inkscape:connector-curvature="0"
       style="opacity:1;fill:#001a48" />
    <path
       d="m 84.64,100.93 c 0.86,-0.11 2.6,-0.34 3.46,-0.46 0.79,4.43 2.28,8.69 3.17,13.1 -0.83,-0.06 -2.5,-0.16 -3.33,-0.22 -1.08,-4.14 -2.17,-8.28 -3.3,-12.42 z"
       id="path31"
       inkscape:connector-curvature="0"
       style="opacity:1;fill:#001a48" />
    <path
       d="m 160.34,101.12 c 1.99,0.27 4.68,-0.62 6.07,1.26 0.54,1.67 0.33,3.48 0.45,5.21 -2.18,0 -4.35,0 -6.52,0 0,-2.16 0,-4.31 0,-6.47 z"
       id="path33"
       inkscape:connector-curvature="0"
       style="opacity:1;fill:#001a48" />
    <path
       d="m 188.73,100.32 c 0.8,0.17 2.4,0.52 3.2,0.7 -0.93,3.39 -1.75,6.8 -2.69,10.19 -0.05,2.19 -2.21,2.51 -3.95,2.59 0.92,-4.55 2.3,-8.99 3.44,-13.48 z"
       id="path35"
       inkscape:connector-curvature="0"
       style="opacity:1;fill:#001a48" />
    <path
       d="m 160.32,109.01 c 2.16,-0.08 4.33,-0.12 6.5,-0.13 -0.14,1.82 0.23,3.76 -0.48,5.48 -1.49,1.71 -4,0.92 -5.98,1.19 -0.01,-2.18 -0.02,-4.36 -0.04,-6.54 z"
       id="path37"
       inkscape:connector-curvature="0"
       style="opacity:1;fill:#001a48" />
  </g>
  <g
     id="#001946fa"
     transform="translate(-67.987291,-14.512713)">
    <path
       d="m 77.49,57.95 c 1.46,-0.16 2.92,-0.31 4.38,-0.47 0.92,5.13 2.6,10.08 3.81,15.13 0.59,2.34 -1.62,4.12 -2.73,5.92 -1.91,-6.84 -3.84,-13.67 -5.46,-20.58 z"
       id="path40"
       inkscape:connector-curvature="0"
       style="opacity:0.98000004;fill:#001946" />
    <path
       d="m 194.9,57.42 c 0.98,0.12 2.96,0.36 3.95,0.48 -1.01,7.08 -3.57,13.83 -5.1,20.81 -1.31,-1.72 -2.42,-3.58 -3.22,-5.59 1.87,-5.1 3.01,-10.44 4.37,-15.7 z"
       id="path42"
       inkscape:connector-curvature="0"
       style="opacity:0.98000004;fill:#001946" />
    <path
       d="m 183.85,98.78 c 1.35,0.39 2.7,0.78 4.05,1.17 -1.12,4.76 -2.39,9.49 -3.84,14.17 -1.33,-0.5 -2.65,-0.99 -3.97,-1.5 1.37,-4.58 2.6,-9.2 3.76,-13.84 z"
       id="path44"
       inkscape:connector-curvature="0"
       style="opacity:0.98000004;fill:#001946" />
  </g>
  <g
     id="#ec8d00fa"
     transform="translate(-67.987291,-14.512713)">
    <path
       d="m 115.3,79.84 c 6.92,-3.03 13.8,-6.14 20.78,-9.01 2.34,-1.18 4.81,0.08 6.99,0.98 18.39,8.13 36.89,16.02 55.27,24.2 -2,2.42 -5,4.46 -8.26,3.25 -18.82,-5.37 -36.15,-15.07 -51.8,-26.69 -14.4,10.8 -30.29,19.8 -47.45,25.39 -2.24,0.67 -4.48,1.63 -6.86,1.61 -2.43,-0.06 -4.12,-1.98 -5.73,-3.54 8.8,-3.74 17.52,-8.09 26.45,-11.28 l 1.9,0.51 c -7.3,4.11 -15.2,6.97 -22.71,10.65 3.18,-0.52 6.31,-1.43 9.06,-3.14 0.55,0.43 1.1,0.87 1.64,1.32 -0.87,0.45 -2.63,1.36 -3.5,1.81 8.31,-2.29 16.03,-6.21 23.62,-10.21 4.78,-2.62 9.72,-5.14 13.77,-8.86 -3.9,1.62 -7.52,3.8 -11.19,5.86 -0.83,-0.15 -1.66,-0.28 -2.49,-0.43 -0.7,-0.14 -2.1,-0.41 -2.8,-0.54 0.83,-0.47 2.48,-1.41 3.31,-1.88 m 31.73,-3.75 c 2.95,2.77 6.51,4.73 9.94,6.82 8.39,4.69 16.92,9.5 26.23,12.1 -2.62,-1.83 -5.54,-3.13 -8.37,-4.59 -9.62,-4.06 -18.44,-9.74 -27.8,-14.33 m 18.53,7.71 c 2.24,3.35 7.48,3.07 9.27,6.62 0.49,-0.02 1.48,-0.08 1.97,-0.11 5.35,2 10.44,5.04 16.26,5.53 -7.41,-3.19 -14.84,-6.33 -22.05,-9.93 -1.74,-0.89 -3.55,-1.66 -5.45,-2.11 -0.15,-3.34 -2.94,1.62 0,0 z"
       id="path47"
       inkscape:connector-curvature="0"
       style="opacity:0.98000004;fill:#ec8d00" />
  </g>
  <g
     id="#dacc9df7"
     transform="translate(-67.987291,-14.512713)">
    <path
       d="m 147.03,76.09 c 9.36,4.59 18.18,10.27 27.8,14.33 2.83,1.46 5.75,2.76 8.37,4.59 -9.31,-2.6 -17.84,-7.41 -26.23,-12.1 -3.43,-2.09 -6.99,-4.05 -9.94,-6.82 z"
       id="path50"
       inkscape:connector-curvature="0"
       style="opacity:0.97000002;fill:#dacc9d" />
  </g>
  <g
     id="#d9c999f7"
     transform="translate(-67.987291,-14.512713)">
    <path
       d="m 117.28,82.69 c 3.67,-2.06 7.29,-4.24 11.19,-5.86 -4.05,3.72 -8.99,6.24 -13.77,8.86 -7.59,4 -15.31,7.92 -23.62,10.21 0.87,-0.45 2.63,-1.36 3.5,-1.81 -0.54,-0.45 -1.09,-0.89 -1.64,-1.32 -2.75,1.71 -5.88,2.62 -9.06,3.14 7.51,-3.68 15.41,-6.54 22.71,-10.65 1.97,-0.81 3.95,-1.59 5.95,-2.31 -0.61,-0.47 -1.23,-0.93 -1.85,-1.4 l -0.21,1.54 -0.89,-2.37 c 1.23,-0.52 2.46,-1.02 3.69,-1.52 0.5,0.16 1.52,0.48 2.02,0.64 -0.83,0.47 -2.48,1.41 -3.31,1.88 0.7,0.13 2.1,0.4 2.8,0.54 -6.26,3.68 -12.6,7.49 -19.6,9.59 -0.09,0.44 -0.27,1.33 -0.36,1.77 7.75,-3.06 15.1,-7.03 22.45,-10.93 z"
       id="path53"
       inkscape:connector-curvature="0"
       style="opacity:0.97000002;fill:#d9c999" />
  </g>
  <g
     id="#c56a0adb"
     transform="translate(-67.987291,-14.512713)">
    <path
       d="m 108.57,78.99 1.91,4.1 0.21,-1.54 c 0.62,0.47 1.24,0.93 1.85,1.4 -2,0.72 -3.98,1.5 -5.95,2.31 l -1.9,-0.51 c 1.49,-1.16 3.26,-1.86 4.98,-2.62 z"
       id="path56"
       inkscape:connector-curvature="0"
       style="opacity:0.86000001;fill:#c56a0a" />
  </g>
  <g
     id="#ec7607fd"
     transform="translate(-67.987291,-14.512713)">
    <path
       d="m 114.79,82.26 c 0.83,0.15 1.66,0.28 2.49,0.43 -7.35,3.9 -14.7,7.87 -22.45,10.93 0.09,-0.44 0.27,-1.33 0.36,-1.77 7,-2.1 13.34,-5.91 19.6,-9.59 z"
       id="path59"
       inkscape:connector-curvature="0"
       style="opacity:1;fill:#ec7607" />
  </g>
  <g
     id="#d6c491f3"
     transform="translate(-67.987291,-14.512713)">
    <path
       d="m 165.56,83.8 c -2.94,1.62 -0.15,-3.34 0,0 z"
       id="path62"
       inkscape:connector-curvature="0"
       style="opacity:0.95;fill:#d6c491" />
  </g>
  <g
     id="#dbc995f7"
     transform="translate(-67.987291,-14.512713)">
    <path
       d="m 165.56,83.8 c 1.9,0.45 3.71,1.22 5.45,2.11 7.21,3.6 14.64,6.74 22.05,9.93 -5.82,-0.49 -10.91,-3.53 -16.26,-5.53 -0.49,0.03 -1.48,0.09 -1.97,0.11 -1.79,-3.55 -7.03,-3.27 -9.27,-6.62 z"
       id="path65"
       inkscape:connector-curvature="0"
       style="opacity:0.97000002;fill:#dbc995" />
  </g>
  <g
     id="#001947fe"
     transform="translate(-67.987291,-14.512713)">
    <path
       d="m 93.35,98.64 c 1.12,-0.41 2.24,-0.82 3.36,-1.21 0.83,3.99 2.16,7.87 3,11.86 0.54,1.68 -1.81,1.92 -2.73,2.66 -1.03,-4.48 -2.18,-8.94 -3.63,-13.31 z"
       id="path68"
       inkscape:connector-curvature="0"
       style="opacity:1;fill:#001947" />
    <path
       d="m 179.96,97.46 c 0.76,0.2 2.27,0.59 3.03,0.79 -0.91,4.7 -2.2,9.31 -3.67,13.86 -0.68,-0.51 -2.03,-1.54 -2.71,-2.05 1.15,-4.19 2.29,-8.39 3.35,-12.6 z"
       id="path70"
       inkscape:connector-curvature="0"
       style="opacity:1;fill:#001947" />
  </g>
  <g
     id="#001946f9"
     transform="translate(-67.987291,-14.512713)">
    <path
       d="m 88.69,99.93 c 1.36,-0.34 2.71,-0.67 4.07,-1 1.23,4.74 2.65,9.44 3.66,14.24 -1.48,0.18 -2.97,0.34 -4.45,0.49 -0.67,-4.67 -2.23,-9.14 -3.28,-13.73 z"
       id="path73"
       inkscape:connector-curvature="0"
       style="opacity:0.98000004;fill:#001946" />
  </g>
  <g
     id="#ee8d00fc"
     transform="translate(-67.987291,-14.512713)">
    <path
       d="m 88.73,114.79 c 4.09,1.06 8.18,-0.38 11.35,-3 -0.89,4.64 -1.62,9.31 -2.2,13.99 -3.18,-3.56 -6.05,-7.37 -9.15,-10.99 z"
       id="path76"
       inkscape:connector-curvature="0"
       style="opacity:1;fill:#ee8d00" />
  </g>
  <g
     id="#001948ff"
     transform="translate(0,-81.000003)" />
  <g
     id="#001947fd"
     transform="translate(0,-81.000003)" />
  <g
     id="#001947fc"
     transform="translate(0,-81.000003)" />
  <g
     id="#001946fb"
     transform="translate(0,-81.000003)" />
  <g
     id="#f18f00ff"
     transform="translate(0,-81.000003)" />
  <g
     id="#ed8c00fb"
     transform="translate(0,-81.000003)" />
  <g
     id="#d2cca0f1"
     transform="translate(0,-81.000003)" />
</svg>
